<svg id="eL0SXhsxNcK1" xmlns="http://www.w3.org/2000/svg" xmlns:xlink="http://www.w3.org/1999/xlink" viewBox="0 0 360 360" shape-rendering="geometricPrecision" text-rendering="geometricPrecision" project-id="2fb7fd9fb6c24207acac3c84af9ae4d1" export-id="c1c248256b3445828f2f27dd5367d58c" cached="false"><rect width="108.020505" height="82.613774" rx="0" ry="0" transform="matrix(1.007121 0 0 1.030277 137.921467 74.714154)" fill="#f8da00" stroke-width="0"/><rect width="91.088835" height="98.827228" rx="0" ry="0" transform="matrix(1.008444 0 0 1.149137 146.387332 59.109096)" fill="#f8da00" stroke-width="0"/><rect width="70.886279" height="122.949102" rx="0" ry="0" transform="matrix(1.052387 0 0 1.010011 155.016446 57.878239)" fill="#f8da00" stroke-width="0"/><rect width="41.833059" height="146.889131" rx="0" ry="0" transform="matrix(1.174933 0 0 1.017028 167.740824 49.12803)" fill="#f8da00" stroke-width="0"/><rect width="124.182555" height="50.050876" rx="0" ry="0" transform="matrix(1.071268 0 0 1.020521 125.799948 91.732705)" fill="#f8da00" stroke-width="0"/><g transform="translate(20.397397-18.915572)"><rect width="56.951988" height="7.311404" rx="0" ry="0" transform="matrix(1.040541 0 0 1.210526 142.040652 61.6702)" stroke-width="0"/><g transform="translate(.000001-.756489)"><rect width="8.85066" height="11.351917" rx="0" ry="0" transform="translate(192.450871 66.852013)" stroke-width="0"/><rect width="20.202557" height="6.926596" rx="0" ry="0" transform="translate(196.876201 71.277334)" stroke-width="0"/><rect width="10.101278" height="15.00762" rx="0" ry="0" transform="translate(206.97748 71.277334)" stroke-width="0"/><rect width="8.465835" height="15.969646" rx="0" ry="0" transform="translate(217.078758 78.781144)" stroke-width="0"/><rect width="8.081025" height="23.762063" rx="0" ry="0" transform="translate(225.544593 86.765967)" stroke-width="0"/><rect width="8.081026" height="64.648203" rx="0" ry="0" transform="translate(233.625618 103.371059)" stroke-width="0"/><rect width="8.081025" height="23.473455" rx="0" ry="0" transform="translate(225.544593 161.707858)" stroke-width="0"/><rect width="8.465835" height="15.186391" rx="0" ry="0" transform="translate(217.078758 178)" stroke-width="0"/><rect width="10.101278" height="15.696896" rx="0" ry="0" transform="translate(206.97748 185.593195)" stroke-width="0"/><rect width="5.67595" height="16.577203" rx="0" ry="0" transform="translate(201.30153 193.441644)" stroke-width="0"/><rect width="8.85066" height="16.460203" rx="0" ry="0" transform="translate(192.45087 201.730246)" stroke-width="0"/><rect width="8.118486" height="16.295253" rx="0" ry="0" transform="translate(184.332384 210.018847)" stroke-width="0"/></g><g transform="matrix(-1 0 0 1 343.068682-.756499)"><rect width="8.85066" height="11.351917" rx="0" ry="0" transform="translate(192.450871 66.852013)" stroke-width="0"/><rect width="20.202557" height="6.926596" rx="0" ry="0" transform="translate(196.876201 71.277334)" stroke-width="0"/><rect width="10.101278" height="15.00762" rx="0" ry="0" transform="translate(206.97748 71.277334)" stroke-width="0"/><rect width="8.465835" height="15.969646" rx="0" ry="0" transform="translate(217.078758 78.781144)" stroke-width="0"/><rect width="8.081025" height="23.762063" rx="0" ry="0" transform="translate(225.544593 86.765967)" stroke-width="0"/><rect width="8.081026" height="64.648203" rx="0" ry="0" transform="translate(233.625618 103.371059)" stroke-width="0"/><rect width="8.081025" height="23.473455" rx="0" ry="0" transform="translate(225.544593 161.707858)" stroke-width="0"/><rect width="8.465835" height="15.186391" rx="0" ry="0" transform="translate(217.078758 178)" stroke-width="0"/><rect width="10.101278" height="15.696896" rx="0" ry="0" transform="translate(206.97748 185.593195)" stroke-width="0"/><rect width="5.67595" height="16.577203" rx="0" ry="0" transform="translate(201.30153 193.441644)" stroke-width="0"/><rect width="8.85066" height="16.460203" rx="0" ry="0" transform="translate(192.45087 201.730246)" stroke-width="0"/><rect width="8.118486" height="16.295253" rx="0" ry="0" transform="translate(184.332384 210.018847)" stroke-width="0"/></g><rect width="25.596087" height="16.286887" rx="0" ry="0" transform="translate(158.736298 217.43396)" stroke-width="0"/></g><g transform="translate(20.397398-19.915571)"><rect width="10.101278" height="47.89243" rx="0" ry="0" transform="translate(125.989924 102.61458)" fill="#fff" stroke-width="0"/><rect width="8.620259" height="8.620259" rx="0" ry="0" transform="translate(142.827256 86.009478)" fill="#fff" stroke-width="0"/><rect width="8.620259" height="8.620259" rx="0" ry="0" transform="translate(134.619048 93.994321)" fill="#fff" stroke-width="0"/></g><rect width="8.850648" height="32.218415" rx="0" ry="0" transform="translate(187.891004 213.805277)" stroke-width="0"/><rect width="8.757309" height="56.784618" rx="0" ry="0" transform="translate(179.133696 238.513349)" stroke-width="0"/><rect width="7.288784" height="24.232926" rx="0" ry="0" transform="translate(171.844912 287.979206)" stroke-width="0"/><rect width="8.208208" height="15.91416" rx="0" ry="0" transform="translate(163.636704 304.978423)" stroke-width="0"/><rect width="19.81797" height="8.680451" rx="0" ry="0" transform="translate(146.771909 312.212132)" stroke-width="0"/><rect width="48.80171" height="8.318766" rx="0" ry="0" transform="translate(106.214735 320.892582)" stroke-width="0"/><rect width="16.275846" height="7.95708" rx="0" ry="0" transform="translate(97.895969 312.935502)" stroke-width="0"/></svg>
