<svg id="eet0VxBCz5D1" xmlns="http://www.w3.org/2000/svg" xmlns:xlink="http://www.w3.org/1999/xlink" viewBox="0 0 300 300" shape-rendering="geometricPrecision" text-rendering="geometricPrecision" project-id="4b0b96bc98e74da2bb0e3eed6e39b519" export-id="ebac12be7e914d10a3ef95a5d73d5341" cached="false"><g transform="matrix(.225934 0.167918-.167918 0.225934 196.288559 33.29944)"><path d="M291.958,352.353h-15.982v0c0-30.893,25.044-55.936,55.936-55.936h15.982v0c.001,30.892-25.043,55.936-55.936,55.936Z" fill="#8cc63f"/><g><path d="M331.913,295.282c-2.732,0-5.396.829-8.023,1.207-.316,27.87-21.007,51.205-47.881,55.075-.002.216-.032,1.06-.032,1.06h15.982c30.893,0,55.936-25.022,55.936-57.343h-15.982v.001Z" fill="#009245"/><path d="M220.04,400.298h15.982v0c0-30.893-25.044-55.936-55.936-55.936h-15.982v0c0,30.892,25.043,55.936,55.936,55.936Z" fill="#009245"/></g><path d="M180.086,344.284c2.732,0,5.396.3,8.023.679.316,27.87,21.007,50.947,47.881,54.819.002.216.032.803.032.803h-15.982c-30.893,0-55.936-25.022-55.936-56.3h15.982v-.001Z" fill="#8cc63f"/><path d="M236.022,232.488v7.991c0,8.827,7.155,15.982,15.982,15.982v0c8.827,0,15.982-7.155,15.982-15.982v-7.991" fill="#009245"/><polygon points="299.95,32.716 252.004,8.742 204.058,32.716 252.004,48.697"/><g><path d="M315.931,160.57v-127.854v0c-23.288,0-45.122,6.226-63.928,17.105" fill="#606060"/><path d="M188.076,168.561c0,36.715,30.95,66.199,68.182,63.789c33.978-2.2,59.672-31.93,59.672-65.979v-5.801c0-70.613-57.243-127.855-127.855-127.855v0v135.847h.001v-.001Z" fill="#606060"/></g><path d="M236.022,232.488v0c-39.72,0-71.918-32.198-71.918-71.918v-71.918v0c13.24,0,23.972,10.733,23.972,23.972v23.972" fill="#444"/><path d="M267.986,232.488v0c39.72,0,71.918-32.198,71.918-71.918v-71.918v0c-13.24,0-23.972,10.733-23.972,23.972v23.972"/><path d="M219.014,168.561v-131.655c-9.383-2.639-19.809-4.19-31.278-4.19v135.846c0,36.714,31.12,66.199,68.352,63.789c4.001-.259,7.449-.93,11.192-1.915-27.514-7.135-48.266-32.127-48.266-61.875Z" fill="#444"/><path d="M187.736,32.716v4.19c56.3,14.214,95.919,64.11,95.919,123.664v5.801c0,30.039-19.854,56.686-47.895,64.064c6.444,1.671,13.9,2.373,20.964,1.915c33.977-2.2,60.293-31.93,60.293-65.979v-5.801c.001-70.613-58.384-127.854-129.281-127.854Z"/><polyline points="228.031,232.488 252.004,192.534 275.976,232.488" fill="#009245"/><path d="M331.913,288.596c-34.04,0-61.933,26.816-63.669,60.431l-8.421,8.421v-20.462h8.193v-15.639h-8.193v-32.32h8.193v-15.639h-8.193v-10.433c9.117-3.181,15.719-11.758,15.967-21.887h10.175c2.071,0,4.055,1.301,4.055,3.787c0,2.487-2.195,3.788-4.28,3.788v15.639c11.469,0,19.919-8.534,19.919-19.427c0-4.566-1.523-8.705-4.094-11.987c27.231-12.699,46.159-40.322,46.159-72.298v-79.738h-7.819c-5.895,0-11.416,1.617-16.153,4.426v-60.362h-7.819c-4.317,0-8.62.213-12.897.619L252.004,0L200.978,25.512c-4.249-.402-8.55-.617-12.902-.617h-7.819v60.362c-4.738-2.807-10.259-4.425-16.153-4.425h-7.819v79.738c0,31.948,18.895,59.553,46.09,72.266-2.615,3.286-4.174,7.438-4.174,12.018c0,10.816,9.345,19.616,19.771,19.616v-15.639c-2.085,0-4.132-1.747-4.132-3.978c0-2.487,2.132-3.787,4.203-3.787h10.175c.248,10.13,6.85,18.706,15.967,21.887v33.37h-8.489v15.639h8.489v34.406h-8.489v15.639h8.489v35.394l-.431-.43c-1.736-33.615-29.629-60.431-63.669-60.431h-23.8v7.819c0,35.155,28.6,63.756,63.756,63.756h12.744l11.402,11.402v21.727h-8.489v15.639h8.489v31.314c0,13.124,10.677,23.801,23.801,23.801s23.801-10.677,23.801-23.801v-15.982h-15.639v15.982c0,4.501-3.662,8.162-8.162,8.162-4.501,0-8.162-3.662-8.162-8.162v-55.294h8.193v-15.639h-8.193v-32.32h8.193v-13.574l11.2-11.2h12.744c35.155,0,63.756-28.601,63.756-63.756v-7.819h-23.802v.001h-.004ZM220.04,392.478c-23.869,0-43.735-17.472-47.482-40.297h7.528c23.87,0,43.736,17.472,47.482,40.297h-7.528ZM323.751,166.371v-5.801-23.973v0-23.972c0-6.072,3.368-11.373,8.333-14.131v62.077c0,18.49-7.88,35.168-20.446,46.877c7.647-11.79,12.113-25.934,12.113-41.077ZM308.112,40.788v56.612c-9.779-18.506-23.705-34.495-40.544-46.709c12.788-5.625,26.524-8.989,40.544-9.903ZM252.004,17.485l25.774,12.886c-8.937,2.613-17.604,6.128-25.837,10.535-8.113-4.348-16.715-7.9-25.704-10.54l25.767-12.881ZM171.923,160.57v-62.077c4.966,2.759,8.333,8.059,8.333,14.131v23.972v31.964c0,13.275,3.749,26.237,10.574,37.42-11.67-11.614-18.907-27.682-18.907-45.41Zm55.167,58.287c-4.845-2.409-9.374-5.532-13.449-9.352-11.444-10.726-17.746-25.267-17.746-40.944v-31.964-23.972-71.839c62.559,4.04,112.216,56.222,112.216,119.784v5.801c0,22.833-12.708,42.801-31.285,52.336l-24.823-41.371-24.913,41.521Zm24.914-11.125l9.655,16.093c-1.936.343-3.905.592-5.905.721-4.559.294-9.05.038-13.412-.712l9.662-16.102Zm0,40.91c-4.302,0-7.83-3.348-8.133-7.574h16.266c-.303,4.226-3.83,7.574-8.133,7.574Zm39.954,95.891h-7.528c3.747-22.826,23.613-40.297,47.483-40.297h7.528c-3.747,22.825-23.613,40.297-47.483,40.297Z"/><rect width="15.639" height="57.342999" rx="0" ry="0" transform="translate(211.718994 119.084999)" fill="#fff"/></g><g transform="matrix(.205587-.192293 0.192293 0.205587-8.75858 131.786455)"><path d="M291.958,352.353h-15.982v0c0-30.893,25.044-55.936,55.936-55.936h15.982v0c.001,30.892-25.043,55.936-55.936,55.936Z" fill="#8cc63f"/><g><path d="M331.913,295.282c-2.732,0-5.396.829-8.023,1.207-.316,27.87-21.007,51.205-47.881,55.075-.002.216-.032,1.06-.032,1.06h15.982c30.893,0,55.936-25.022,55.936-57.343h-15.982v.001Z" fill="#009245"/><path d="M220.04,400.298h15.982v0c0-30.893-25.044-55.936-55.936-55.936h-15.982v0c0,30.892,25.043,55.936,55.936,55.936Z" fill="#009245"/></g><path d="M180.086,344.284c2.732,0,5.396.3,8.023.679.316,27.87,21.007,50.947,47.881,54.819.002.216.032.803.032.803h-15.982c-30.893,0-55.936-25.022-55.936-56.3h15.982v-.001Z" fill="#8cc63f"/><path d="M236.022,232.488v7.991c0,8.827,7.155,15.982,15.982,15.982v0c8.827,0,15.982-7.155,15.982-15.982v-7.991" fill="#009245"/><polygon points="299.95,32.716 252.004,8.742 204.058,32.716 252.004,48.697"/><g><path d="M315.931,160.57v-127.854v0c-23.288,0-45.122,6.226-63.928,17.105" fill="#606060"/><path d="M188.076,168.561c0,36.715,30.95,66.199,68.182,63.789c33.978-2.2,59.672-31.93,59.672-65.979v-5.801c0-70.613-57.243-127.855-127.855-127.855v0v135.847h.001v-.001Z" fill="#606060"/></g><path d="M236.022,232.488v0c-39.72,0-71.918-32.198-71.918-71.918v-71.918v0c13.24,0,23.972,10.733,23.972,23.972v23.972" fill="#444"/><path d="M267.986,232.488v0c39.72,0,71.918-32.198,71.918-71.918v-71.918v0c-13.24,0-23.972,10.733-23.972,23.972v23.972"/><path d="M219.014,168.561v-131.655c-9.383-2.639-19.809-4.19-31.278-4.19v135.846c0,36.714,31.12,66.199,68.352,63.789c4.001-.259,7.449-.93,11.192-1.915-27.514-7.135-48.266-32.127-48.266-61.875Z" fill="#444"/><path d="M187.736,32.716v4.19c56.3,14.214,95.919,64.11,95.919,123.664v5.801c0,30.039-19.854,56.686-47.895,64.064c6.444,1.671,13.9,2.373,20.964,1.915c33.977-2.2,60.293-31.93,60.293-65.979v-5.801c.001-70.613-58.384-127.854-129.281-127.854Z"/><polyline points="228.031,232.488 252.004,192.534 275.976,232.488" fill="#009245"/><path d="M331.913,288.596c-34.04,0-61.933,26.816-63.669,60.431l-8.421,8.421v-20.462h8.193v-15.639h-8.193v-32.32h8.193v-15.639h-8.193v-10.433c9.117-3.181,15.719-11.758,15.967-21.887h10.175c2.071,0,4.055,1.301,4.055,3.787c0,2.487-2.195,3.788-4.28,3.788v15.639c11.469,0,19.919-8.534,19.919-19.427c0-4.566-1.523-8.705-4.094-11.987c27.231-12.699,46.159-40.322,46.159-72.298v-79.738h-7.819c-5.895,0-11.416,1.617-16.153,4.426v-60.362h-7.819c-4.317,0-8.62.213-12.897.619L252.004,0L200.978,25.512c-4.249-.402-8.55-.617-12.902-.617h-7.819v60.362c-4.738-2.807-10.259-4.425-16.153-4.425h-7.819v79.738c0,31.948,18.895,59.553,46.09,72.266-2.615,3.286-4.174,7.438-4.174,12.018c0,10.816,9.345,19.616,19.771,19.616v-15.639c-2.085,0-4.132-1.747-4.132-3.978c0-2.487,2.132-3.787,4.203-3.787h10.175c.248,10.13,6.85,18.706,15.967,21.887v33.37h-8.489v15.639h8.489v34.406h-8.489v15.639h8.489v35.394l-.431-.43c-1.736-33.615-29.629-60.431-63.669-60.431h-23.8v7.819c0,35.155,28.6,63.756,63.756,63.756h12.744l11.402,11.402v21.727h-8.489v15.639h8.489v31.314c0,13.124,10.677,23.801,23.801,23.801s23.801-10.677,23.801-23.801v-15.982h-15.639v15.982c0,4.501-3.662,8.162-8.162,8.162-4.501,0-8.162-3.662-8.162-8.162v-55.294h8.193v-15.639h-8.193v-32.32h8.193v-13.574l11.2-11.2h12.744c35.155,0,63.756-28.601,63.756-63.756v-7.819h-23.802v.001h-.004ZM220.04,392.478c-23.869,0-43.735-17.472-47.482-40.297h7.528c23.87,0,43.736,17.472,47.482,40.297h-7.528ZM323.751,166.371v-5.801-23.973v0-23.972c0-6.072,3.368-11.373,8.333-14.131v62.077c0,18.49-7.88,35.168-20.446,46.877c7.647-11.79,12.113-25.934,12.113-41.077ZM308.112,40.788v56.612c-9.779-18.506-23.705-34.495-40.544-46.709c12.788-5.625,26.524-8.989,40.544-9.903ZM252.004,17.485l25.774,12.886c-8.937,2.613-17.604,6.128-25.837,10.535-8.113-4.348-16.715-7.9-25.704-10.54l25.767-12.881ZM171.923,160.57v-62.077c4.966,2.759,8.333,8.059,8.333,14.131v23.972v31.964c0,13.275,3.749,26.237,10.574,37.42-11.67-11.614-18.907-27.682-18.907-45.41Zm55.167,58.287c-4.845-2.409-9.374-5.532-13.449-9.352-11.444-10.726-17.746-25.267-17.746-40.944v-31.964-23.972-71.839c62.559,4.04,112.216,56.222,112.216,119.784v5.801c0,22.833-12.708,42.801-31.285,52.336l-24.823-41.371-24.913,41.521Zm24.914-11.125l9.655,16.093c-1.936.343-3.905.592-5.905.721-4.559.294-9.05.038-13.412-.712l9.662-16.102Zm0,40.91c-4.302,0-7.83-3.348-8.133-7.574h16.266c-.303,4.226-3.83,7.574-8.133,7.574Zm39.954,95.891h-7.528c3.747-22.826,23.613-40.297,47.483-40.297h7.528c-3.747,22.825-23.613,40.297-47.483,40.297Z"/><rect width="15.639" height="57.342999" rx="0" ry="0" transform="translate(211.718994 119.084999)" fill="#fff"/></g><g transform="matrix(.22797-.077456 0.077456 0.22797 36.096952 62.603731)"><path d="M291.958,352.353h-15.982v0c0-30.893,25.044-55.936,55.936-55.936h15.982v0c.001,30.892-25.043,55.936-55.936,55.936Z" fill="#8cc63f"/><g><path d="M331.913,295.282c-2.732,0-5.396.829-8.023,1.207-.316,27.87-21.007,51.205-47.881,55.075-.002.216-.032,1.06-.032,1.06h15.982c30.893,0,55.936-25.022,55.936-57.343h-15.982v.001Z" fill="#009245"/><path d="M220.04,400.298h15.982v0c0-30.893-25.044-55.936-55.936-55.936h-15.982v0c0,30.892,25.043,55.936,55.936,55.936Z" fill="#009245"/></g><path d="M180.086,344.284c2.732,0,5.396.3,8.023.679.316,27.87,21.007,50.947,47.881,54.819.002.216.032.803.032.803h-15.982c-30.893,0-55.936-25.022-55.936-56.3h15.982v-.001Z" fill="#8cc63f"/><path d="M236.022,232.488v7.991c0,8.827,7.155,15.982,15.982,15.982v0c8.827,0,15.982-7.155,15.982-15.982v-7.991" fill="#009245"/><polygon points="299.95,32.716 252.004,8.742 204.058,32.716 252.004,48.697" fill="#fff"/><g><path d="M315.931,160.57v-127.854v0c-23.288,0-45.122,6.226-63.928,17.105" fill="#f8fadb"/><path d="M188.076,168.561c0,36.715,30.95,66.199,68.182,63.789c33.978-2.2,59.672-31.93,59.672-65.979v-5.801c0-70.613-57.243-127.855-127.855-127.855v0v135.847h.001v-.001Z" fill="#f8fadb"/></g><path d="M236.022,232.488v0c-39.72,0-71.918-32.198-71.918-71.918v-71.918v0c13.24,0,23.972,10.733,23.972,23.972v23.972" fill="#fefcdd"/><path d="M267.986,232.488v0c39.72,0,71.918-32.198,71.918-71.918v-71.918v0c-13.24,0-23.972,10.733-23.972,23.972v23.972" fill="#fff"/><path d="M219.014,168.561v-131.655c-9.383-2.639-19.809-4.19-31.278-4.19v135.846c0,36.714,31.12,66.199,68.352,63.789c4.001-.259,7.449-.93,11.192-1.915-27.514-7.135-48.266-32.127-48.266-61.875Z" fill="#fefcdd"/><path d="M187.736,32.716v4.19c56.3,14.214,95.919,64.11,95.919,123.664v5.801c0,30.039-19.854,56.686-47.895,64.064c6.444,1.671,13.9,2.373,20.964,1.915c33.977-2.2,60.293-31.93,60.293-65.979v-5.801c.001-70.613-58.384-127.854-129.281-127.854Z" fill="#fff"/><polyline points="228.031,232.488 252.004,192.534 275.976,232.488" fill="#009245"/><path d="M331.913,288.596c-34.04,0-61.933,26.816-63.669,60.431l-8.421,8.421v-20.462h8.193v-15.639h-8.193v-32.32h8.193v-15.639h-8.193v-10.433c9.117-3.181,15.719-11.758,15.967-21.887h10.175c2.071,0,4.055,1.301,4.055,3.787c0,2.487-2.195,3.788-4.28,3.788v15.639c11.469,0,19.919-8.534,19.919-19.427c0-4.566-1.523-8.705-4.094-11.987c27.231-12.699,46.159-40.322,46.159-72.298v-79.738h-7.819c-5.895,0-11.416,1.617-16.153,4.426v-60.362h-7.819c-4.317,0-8.62.213-12.897.619L252.004,0L200.978,25.512c-4.249-.402-8.55-.617-12.902-.617h-7.819v60.362c-4.738-2.807-10.259-4.425-16.153-4.425h-7.819v79.738c0,31.948,18.895,59.553,46.09,72.266-2.615,3.286-4.174,7.438-4.174,12.018c0,10.816,9.345,19.616,19.771,19.616v-15.639c-2.085,0-4.132-1.747-4.132-3.978c0-2.487,2.132-3.787,4.203-3.787h10.175c.248,10.13,6.85,18.706,15.967,21.887v33.37h-8.489v15.639h8.489v34.406h-8.489v15.639h8.489v35.394l-.431-.43c-1.736-33.615-29.629-60.431-63.669-60.431h-23.8v7.819c0,35.155,28.6,63.756,63.756,63.756h12.744l11.402,11.402v21.727h-8.489v15.639h8.489v31.314c0,13.124,10.677,23.801,23.801,23.801s23.801-10.677,23.801-23.801v-15.982h-15.639v15.982c0,4.501-3.662,8.162-8.162,8.162-4.501,0-8.162-3.662-8.162-8.162v-55.294h8.193v-15.639h-8.193v-32.32h8.193v-13.574l11.2-11.2h12.744c35.155,0,63.756-28.601,63.756-63.756v-7.819h-23.802v.001h-.004ZM220.04,392.478c-23.869,0-43.735-17.472-47.482-40.297h7.528c23.87,0,43.736,17.472,47.482,40.297h-7.528ZM323.751,166.371v-5.801-23.973v0-23.972c0-6.072,3.368-11.373,8.333-14.131v62.077c0,18.49-7.88,35.168-20.446,46.877c7.647-11.79,12.113-25.934,12.113-41.077ZM308.112,40.788v56.612c-9.779-18.506-23.705-34.495-40.544-46.709c12.788-5.625,26.524-8.989,40.544-9.903ZM252.004,17.485l25.774,12.886c-8.937,2.613-17.604,6.128-25.837,10.535-8.113-4.348-16.715-7.9-25.704-10.54l25.767-12.881ZM171.923,160.57v-62.077c4.966,2.759,8.333,8.059,8.333,14.131v23.972v31.964c0,13.275,3.749,26.237,10.574,37.42-11.67-11.614-18.907-27.682-18.907-45.41Zm55.167,58.287c-4.845-2.409-9.374-5.532-13.449-9.352-11.444-10.726-17.746-25.267-17.746-40.944v-31.964-23.972-71.839c62.559,4.04,112.216,56.222,112.216,119.784v5.801c0,22.833-12.708,42.801-31.285,52.336l-24.823-41.371-24.913,41.521Zm24.914-11.125l9.655,16.093c-1.936.343-3.905.592-5.905.721-4.559.294-9.05.038-13.412-.712l9.662-16.102Zm0,40.91c-4.302,0-7.83-3.348-8.133-7.574h16.266c-.303,4.226-3.83,7.574-8.133,7.574Zm39.954,95.891h-7.528c3.747-22.826,23.613-40.297,47.483-40.297h7.528c-3.747,22.825-23.613,40.297-47.483,40.297Z"/><rect width="15.639" height="57.342999" rx="0" ry="0" transform="translate(211.718994 119.084999)" fill="#fff"/></g><g transform="matrix(.217514 0.103234-.103234 0.217514 154.840521 15.870602)"><path d="M291.958,352.353h-15.982v0c0-30.893,25.044-55.936,55.936-55.936h15.982v0c.001,30.892-25.043,55.936-55.936,55.936Z" fill="#8cc63f"/><g><path d="M331.913,295.282c-2.732,0-5.396.829-8.023,1.207-.316,27.87-21.007,51.205-47.881,55.075-.002.216-.032,1.06-.032,1.06h15.982c30.893,0,55.936-25.022,55.936-57.343h-15.982v.001Z" fill="#009245"/><path d="M220.04,400.298h15.982v0c0-30.893-25.044-55.936-55.936-55.936h-15.982v0c0,30.892,25.043,55.936,55.936,55.936Z" fill="#009245"/></g><path d="M180.086,344.284c2.732,0,5.396.3,8.023.679.316,27.87,21.007,50.947,47.881,54.819.002.216.032.803.032.803h-15.982c-30.893,0-55.936-25.022-55.936-56.3h15.982v-.001Z" fill="#8cc63f"/><path d="M236.022,232.488v7.991c0,8.827,7.155,15.982,15.982,15.982v0c8.827,0,15.982-7.155,15.982-15.982v-7.991" fill="#009245"/><polygon points="299.95,32.716 252.004,8.742 204.058,32.716 252.004,48.697" fill="#fff"/><g><path d="M315.931,160.57v-127.854v0c-23.288,0-45.122,6.226-63.928,17.105" fill="#f8fadb"/><path d="M188.076,168.561c0,36.715,30.95,66.199,68.182,63.789c33.978-2.2,59.672-31.93,59.672-65.979v-5.801c0-70.613-57.243-127.855-127.855-127.855v0v135.847h.001v-.001Z" fill="#f8fadb"/></g><path d="M236.022,232.488v0c-39.72,0-71.918-32.198-71.918-71.918v-71.918v0c13.24,0,23.972,10.733,23.972,23.972v23.972" fill="#fefcdd"/><path d="M267.986,232.488v0c39.72,0,71.918-32.198,71.918-71.918v-71.918v0c-13.24,0-23.972,10.733-23.972,23.972v23.972" fill="#fff"/><path d="M219.014,168.561v-131.655c-9.383-2.639-19.809-4.19-31.278-4.19v135.846c0,36.714,31.12,66.199,68.352,63.789c4.001-.259,7.449-.93,11.192-1.915-27.514-7.135-48.266-32.127-48.266-61.875Z" fill="#fefcdd"/><path d="M187.736,32.716v4.19c56.3,14.214,95.919,64.11,95.919,123.664v5.801c0,30.039-19.854,56.686-47.895,64.064c6.444,1.671,13.9,2.373,20.964,1.915c33.977-2.2,60.293-31.93,60.293-65.979v-5.801c.001-70.613-58.384-127.854-129.281-127.854Z" fill="#fff"/><polyline points="228.031,232.488 252.004,192.534 275.976,232.488" fill="#009245"/><path d="M331.913,288.596c-34.04,0-61.933,26.816-63.669,60.431l-8.421,8.421v-20.462h8.193v-15.639h-8.193v-32.32h8.193v-15.639h-8.193v-10.433c9.117-3.181,15.719-11.758,15.967-21.887h10.175c2.071,0,4.055,1.301,4.055,3.787c0,2.487-2.195,3.788-4.28,3.788v15.639c11.469,0,19.919-8.534,19.919-19.427c0-4.566-1.523-8.705-4.094-11.987c27.231-12.699,46.159-40.322,46.159-72.298v-79.738h-7.819c-5.895,0-11.416,1.617-16.153,4.426v-60.362h-7.819c-4.317,0-8.62.213-12.897.619L252.004,0L200.978,25.512c-4.249-.402-8.55-.617-12.902-.617h-7.819v60.362c-4.738-2.807-10.259-4.425-16.153-4.425h-7.819v79.738c0,31.948,18.895,59.553,46.09,72.266-2.615,3.286-4.174,7.438-4.174,12.018c0,10.816,9.345,19.616,19.771,19.616v-15.639c-2.085,0-4.132-1.747-4.132-3.978c0-2.487,2.132-3.787,4.203-3.787h10.175c.248,10.13,6.85,18.706,15.967,21.887v33.37h-8.489v15.639h8.489v34.406h-8.489v15.639h8.489v35.394l-.431-.43c-1.736-33.615-29.629-60.431-63.669-60.431h-23.8v7.819c0,35.155,28.6,63.756,63.756,63.756h12.744l11.402,11.402v21.727h-8.489v15.639h8.489v31.314c0,13.124,10.677,23.801,23.801,23.801s23.801-10.677,23.801-23.801v-15.982h-15.639v15.982c0,4.501-3.662,8.162-8.162,8.162-4.501,0-8.162-3.662-8.162-8.162v-55.294h8.193v-15.639h-8.193v-32.32h8.193v-13.574l11.2-11.2h12.744c35.155,0,63.756-28.601,63.756-63.756v-7.819h-23.802v.001h-.004ZM220.04,392.478c-23.869,0-43.735-17.472-47.482-40.297h7.528c23.87,0,43.736,17.472,47.482,40.297h-7.528ZM323.751,166.371v-5.801-23.973v0-23.972c0-6.072,3.368-11.373,8.333-14.131v62.077c0,18.49-7.88,35.168-20.446,46.877c7.647-11.79,12.113-25.934,12.113-41.077ZM308.112,40.788v56.612c-9.779-18.506-23.705-34.495-40.544-46.709c12.788-5.625,26.524-8.989,40.544-9.903ZM252.004,17.485l25.774,12.886c-8.937,2.613-17.604,6.128-25.837,10.535-8.113-4.348-16.715-7.9-25.704-10.54l25.767-12.881ZM171.923,160.57v-62.077c4.966,2.759,8.333,8.059,8.333,14.131v23.972v31.964c0,13.275,3.749,26.237,10.574,37.42-11.67-11.614-18.907-27.682-18.907-45.41Zm55.167,58.287c-4.845-2.409-9.374-5.532-13.449-9.352-11.444-10.726-17.746-25.267-17.746-40.944v-31.964-23.972-71.839c62.559,4.04,112.216,56.222,112.216,119.784v5.801c0,22.833-12.708,42.801-31.285,52.336l-24.823-41.371-24.913,41.521Zm24.914-11.125l9.655,16.093c-1.936.343-3.905.592-5.905.721-4.559.294-9.05.038-13.412-.712l9.662-16.102Zm0,40.91c-4.302,0-7.83-3.348-8.133-7.574h16.266c-.303,4.226-3.83,7.574-8.133,7.574Zm39.954,95.891h-7.528c3.747-22.826,23.613-40.297,47.483-40.297h7.528c-3.747,22.825-23.613,40.297-47.483,40.297Z"/><rect width="15.639" height="57.342999" rx="0" ry="0" transform="translate(211.718994 119.084999)" fill="#fff"/></g><g transform="matrix(.202415-.096174 0.096176 0.20242 47.691025 131.556697)"><path d="M291.958,352.353h-15.982v0c0-30.893,25.044-55.936,55.936-55.936h15.982v0c.001,30.892-25.043,55.936-55.936,55.936Z" fill="#8cc63f"/><g><path d="M331.913,295.282c-2.732,0-5.396.829-8.023,1.207-.316,27.87-21.007,51.205-47.881,55.075-.002.216-.032,1.06-.032,1.06h15.982c30.893,0,55.936-25.022,55.936-57.343h-15.982v.001Z" fill="#009245"/><path d="M220.04,400.298h15.982v0c0-30.893-25.044-55.936-55.936-55.936h-15.982v0c0,30.892,25.043,55.936,55.936,55.936Z" fill="#009245"/></g><path d="M180.086,344.284c2.732,0,5.396.3,8.023.679.316,27.87,21.007,50.947,47.881,54.819.002.216.032.803.032.803h-15.982c-30.893,0-55.936-25.022-55.936-56.3h15.982v-.001Z" fill="#8cc63f"/><path d="M236.022,232.488v7.991c0,8.827,7.155,15.982,15.982,15.982v0c8.827,0,15.982-7.155,15.982-15.982v-7.991" fill="#009245"/><polygon points="299.95,32.716 252.004,8.742 204.058,32.716 252.004,48.697" fill="#b51a00"/><g><path d="M315.931,160.57v-127.854v0c-23.288,0-45.122,6.226-63.928,17.105" fill="#b51a00"/><path d="M188.076,168.561c0,36.715,30.95,66.199,68.182,63.789c33.978-2.2,59.672-31.93,59.672-65.979v-5.801c0-70.613-57.243-127.855-127.855-127.855v0v135.847h.001v-.001Z" fill="#b51a00"/></g><path d="M236.022,232.488v0c-39.72,0-71.918-32.198-71.918-71.918v-71.918v0c13.24,0,23.972,10.733,23.972,23.972v23.972" fill="#e32400"/><path d="M267.986,232.488v0c39.72,0,71.918-32.198,71.918-71.918v-71.918v0c-13.24,0-23.972,10.733-23.972,23.972v23.972" fill="#b51a00"/><path d="M219.014,168.561v-131.655c-9.383-2.639-19.809-4.19-31.278-4.19v135.846c0,36.714,31.12,66.199,68.352,63.789c4.001-.259,7.449-.93,11.192-1.915-27.514-7.135-48.266-32.127-48.266-61.875Z" fill="#e32400"/><path d="M187.736,32.716v4.19c56.3,14.214,95.919,64.11,95.919,123.664v5.801c0,30.039-19.854,56.686-47.895,64.064c6.444,1.671,13.9,2.373,20.964,1.915c33.977-2.2,60.293-31.93,60.293-65.979v-5.801c.001-70.613-58.384-127.854-129.281-127.854Z" fill="#b51a00"/><polyline points="228.031,232.488 252.004,192.534 275.976,232.488" fill="#009245"/><path d="M331.913,288.596c-34.04,0-61.933,26.816-63.669,60.431l-8.421,8.421v-20.462h8.193v-15.639h-8.193v-32.32h8.193v-15.639h-8.193v-10.433c9.117-3.181,15.719-11.758,15.967-21.887h10.175c2.071,0,4.055,1.301,4.055,3.787c0,2.487-2.195,3.788-4.28,3.788v15.639c11.469,0,19.919-8.534,19.919-19.427c0-4.566-1.523-8.705-4.094-11.987c27.231-12.699,46.159-40.322,46.159-72.298v-79.738h-7.819c-5.895,0-11.416,1.617-16.153,4.426v-60.362h-7.819c-4.317,0-8.62.213-12.897.619L252.004,0L200.978,25.512c-4.249-.402-8.55-.617-12.902-.617h-7.819v60.362c-4.738-2.807-10.259-4.425-16.153-4.425h-7.819v79.738c0,31.948,18.895,59.553,46.09,72.266-2.615,3.286-4.174,7.438-4.174,12.018c0,10.816,9.345,19.616,19.771,19.616v-15.639c-2.085,0-4.132-1.747-4.132-3.978c0-2.487,2.132-3.787,4.203-3.787h10.175c.248,10.13,6.85,18.706,15.967,21.887v33.37h-8.489v15.639h8.489v34.406h-8.489v15.639h8.489v35.394l-.431-.43c-1.736-33.615-29.629-60.431-63.669-60.431h-23.8v7.819c0,35.155,28.6,63.756,63.756,63.756h12.744l11.402,11.402v21.727h-8.489v15.639h8.489v31.314c0,13.124,10.677,23.801,23.801,23.801s23.801-10.677,23.801-23.801v-15.982h-15.639v15.982c0,4.501-3.662,8.162-8.162,8.162-4.501,0-8.162-3.662-8.162-8.162v-55.294h8.193v-15.639h-8.193v-32.32h8.193v-13.574l11.2-11.2h12.744c35.155,0,63.756-28.601,63.756-63.756v-7.819h-23.802v.001h-.004ZM220.04,392.478c-23.869,0-43.735-17.472-47.482-40.297h7.528c23.87,0,43.736,17.472,47.482,40.297h-7.528ZM323.751,166.371v-5.801-23.973v0-23.972c0-6.072,3.368-11.373,8.333-14.131v62.077c0,18.49-7.88,35.168-20.446,46.877c7.647-11.79,12.113-25.934,12.113-41.077ZM308.112,40.788v56.612c-9.779-18.506-23.705-34.495-40.544-46.709c12.788-5.625,26.524-8.989,40.544-9.903ZM252.004,17.485l25.774,12.886c-8.937,2.613-17.604,6.128-25.837,10.535-8.113-4.348-16.715-7.9-25.704-10.54l25.767-12.881ZM171.923,160.57v-62.077c4.966,2.759,8.333,8.059,8.333,14.131v23.972v31.964c0,13.275,3.749,26.237,10.574,37.42-11.67-11.614-18.907-27.682-18.907-45.41Zm55.167,58.287c-4.845-2.409-9.374-5.532-13.449-9.352-11.444-10.726-17.746-25.267-17.746-40.944v-31.964-23.972-71.839c62.559,4.04,112.216,56.222,112.216,119.784v5.801c0,22.833-12.708,42.801-31.285,52.336l-24.823-41.371-24.913,41.521Zm24.914-11.125l9.655,16.093c-1.936.343-3.905.592-5.905.721-4.559.294-9.05.038-13.412-.712l9.662-16.102Zm0,40.91c-4.302,0-7.83-3.348-8.133-7.574h16.266c-.303,4.226-3.83,7.574-8.133,7.574Zm39.954,95.891h-7.528c3.747-22.826,23.613-40.297,47.483-40.297h7.528c-3.747,22.825-23.613,40.297-47.483,40.297Z"/><rect width="15.639" height="57.342999" rx="0" ry="0" transform="translate(211.718994 119.084999)" fill="#fff"/></g><g transform="matrix(.224101 0 0 0.224106 92.629696 14.484427)"><path d="M291.958,352.353h-15.982v0c0-30.893,25.044-55.936,55.936-55.936h15.982v0c.001,30.892-25.043,55.936-55.936,55.936Z" fill="#8cc63f"/><g><path d="M331.913,295.282c-2.732,0-5.396.829-8.023,1.207-.316,27.87-21.007,51.205-47.881,55.075-.002.216-.032,1.06-.032,1.06h15.982c30.893,0,55.936-25.022,55.936-57.343h-15.982v.001Z" fill="#009245"/><path d="M220.04,400.298h15.982v0c0-30.893-25.044-55.936-55.936-55.936h-15.982v0c0,30.892,25.043,55.936,55.936,55.936Z" fill="#009245"/></g><path d="M180.086,344.284c2.732,0,5.396.3,8.023.679.316,27.87,21.007,50.947,47.881,54.819.002.216.032.803.032.803h-15.982c-30.893,0-55.936-25.022-55.936-56.3h15.982v-.001Z" fill="#8cc63f"/><path d="M236.022,232.488v7.991c0,8.827,7.155,15.982,15.982,15.982v0c8.827,0,15.982-7.155,15.982-15.982v-7.991" fill="#009245"/><polygon points="299.95,32.716 252.004,8.742 204.058,32.716 252.004,48.697" fill="#b51a00"/><g><path d="M315.931,160.57v-127.854v0c-23.288,0-45.122,6.226-63.928,17.105" fill="#b51a00"/><path d="M188.076,168.561c0,36.715,30.95,66.199,68.182,63.789c33.978-2.2,59.672-31.93,59.672-65.979v-5.801c0-70.613-57.243-127.855-127.855-127.855v0v135.847h.001v-.001Z" fill="#b51a00"/></g><path d="M236.022,232.488v0c-39.72,0-71.918-32.198-71.918-71.918v-71.918v0c13.24,0,23.972,10.733,23.972,23.972v23.972" fill="#e32400"/><path d="M267.986,232.488v0c39.72,0,71.918-32.198,71.918-71.918v-71.918v0c-13.24,0-23.972,10.733-23.972,23.972v23.972" fill="#b51a00"/><path d="M219.014,168.561v-131.655c-9.383-2.639-19.809-4.19-31.278-4.19v135.846c0,36.714,31.12,66.199,68.352,63.789c4.001-.259,7.449-.93,11.192-1.915-27.514-7.135-48.266-32.127-48.266-61.875Z" fill="#e32400"/><path d="M187.736,32.716v4.19c56.3,14.214,95.919,64.11,95.919,123.664v5.801c0,30.039-19.854,56.686-47.895,64.064c6.444,1.671,13.9,2.373,20.964,1.915c33.977-2.2,60.293-31.93,60.293-65.979v-5.801c.001-70.613-58.384-127.854-129.281-127.854Z" fill="#b51a00"/><polyline points="228.031,232.488 252.004,192.534 275.976,232.488" fill="#009245"/><path d="M331.913,288.596c-34.04,0-61.933,26.816-63.669,60.431l-8.421,8.421v-20.462h8.193v-15.639h-8.193v-32.32h8.193v-15.639h-8.193v-10.433c9.117-3.181,15.719-11.758,15.967-21.887h10.175c2.071,0,4.055,1.301,4.055,3.787c0,2.487-2.195,3.788-4.28,3.788v15.639c11.469,0,19.919-8.534,19.919-19.427c0-4.566-1.523-8.705-4.094-11.987c27.231-12.699,46.159-40.322,46.159-72.298v-79.738h-7.819c-5.895,0-11.416,1.617-16.153,4.426v-60.362h-7.819c-4.317,0-8.62.213-12.897.619L252.004,0L200.978,25.512c-4.249-.402-8.55-.617-12.902-.617h-7.819v60.362c-4.738-2.807-10.259-4.425-16.153-4.425h-7.819v79.738c0,31.948,18.895,59.553,46.09,72.266-2.615,3.286-4.174,7.438-4.174,12.018c0,10.816,9.345,19.616,19.771,19.616v-15.639c-2.085,0-4.132-1.747-4.132-3.978c0-2.487,2.132-3.787,4.203-3.787h10.175c.248,10.13,6.85,18.706,15.967,21.887v33.37h-8.489v15.639h8.489v34.406h-8.489v15.639h8.489v35.394l-.431-.43c-1.736-33.615-29.629-60.431-63.669-60.431h-23.8v7.819c0,35.155,28.6,63.756,63.756,63.756h12.744l11.402,11.402v21.727h-8.489v15.639h8.489v31.314c0,13.124,10.677,23.801,23.801,23.801s23.801-10.677,23.801-23.801v-15.982h-15.639v15.982c0,4.501-3.662,8.162-8.162,8.162-4.501,0-8.162-3.662-8.162-8.162v-55.294h8.193v-15.639h-8.193v-32.32h8.193v-13.574l11.2-11.2h12.744c35.155,0,63.756-28.601,63.756-63.756v-7.819h-23.802v.001h-.004ZM220.04,392.478c-23.869,0-43.735-17.472-47.482-40.297h7.528c23.87,0,43.736,17.472,47.482,40.297h-7.528ZM323.751,166.371v-5.801-23.973v0-23.972c0-6.072,3.368-11.373,8.333-14.131v62.077c0,18.49-7.88,35.168-20.446,46.877c7.647-11.79,12.113-25.934,12.113-41.077ZM308.112,40.788v56.612c-9.779-18.506-23.705-34.495-40.544-46.709c12.788-5.625,26.524-8.989,40.544-9.903ZM252.004,17.485l25.774,12.886c-8.937,2.613-17.604,6.128-25.837,10.535-8.113-4.348-16.715-7.9-25.704-10.54l25.767-12.881ZM171.923,160.57v-62.077c4.966,2.759,8.333,8.059,8.333,14.131v23.972v31.964c0,13.275,3.749,26.237,10.574,37.42-11.67-11.614-18.907-27.682-18.907-45.41Zm55.167,58.287c-4.845-2.409-9.374-5.532-13.449-9.352-11.444-10.726-17.746-25.267-17.746-40.944v-31.964-23.972-71.839c62.559,4.04,112.216,56.222,112.216,119.784v5.801c0,22.833-12.708,42.801-31.285,52.336l-24.823-41.371-24.913,41.521Zm24.914-11.125l9.655,16.093c-1.936.343-3.905.592-5.905.721-4.559.294-9.05.038-13.412-.712l9.662-16.102Zm0,40.91c-4.302,0-7.83-3.348-8.133-7.574h16.266c-.303,4.226-3.83,7.574-8.133,7.574Zm39.954,95.891h-7.528c3.747-22.826,23.613-40.297,47.483-40.297h7.528c-3.747,22.825-23.613,40.297-47.483,40.297Z"/><rect width="15.639" height="57.342999" rx="0" ry="0" transform="translate(211.718994 119.084999)" fill="#fff"/></g><g transform="matrix(.209354 0.07995-.079952 0.209359 147.068752 84.45412)"><path d="M291.958,352.353h-15.982v0c0-30.893,25.044-55.936,55.936-55.936h15.982v0c.001,30.892-25.043,55.936-55.936,55.936Z" fill="#8cc63f"/><g><path d="M331.913,295.282c-2.732,0-5.396.829-8.023,1.207-.316,27.87-21.007,51.205-47.881,55.075-.002.216-.032,1.06-.032,1.06h15.982c30.893,0,55.936-25.022,55.936-57.343h-15.982v.001Z" fill="#009245"/><path d="M220.04,400.298h15.982v0c0-30.893-25.044-55.936-55.936-55.936h-15.982v0c0,30.892,25.043,55.936,55.936,55.936Z" fill="#009245"/></g><path d="M180.086,344.284c2.732,0,5.396.3,8.023.679.316,27.87,21.007,50.947,47.881,54.819.002.216.032.803.032.803h-15.982c-30.893,0-55.936-25.022-55.936-56.3h15.982v-.001Z" fill="#8cc63f"/><path d="M236.022,232.488v7.991c0,8.827,7.155,15.982,15.982,15.982v0c8.827,0,15.982-7.155,15.982-15.982v-7.991" fill="#009245"/><polygon points="299.95,32.716 252.004,8.742 204.058,32.716 252.004,48.697" fill="#b51a00"/><g><path d="M315.931,160.57v-127.854v0c-23.288,0-45.122,6.226-63.928,17.105" fill="#b51a00"/><path d="M188.076,168.561c0,36.715,30.95,66.199,68.182,63.789c33.978-2.2,59.672-31.93,59.672-65.979v-5.801c0-70.613-57.243-127.855-127.855-127.855v0v135.847h.001v-.001Z" fill="#b51a00"/></g><path d="M236.022,232.488v0c-39.72,0-71.918-32.198-71.918-71.918v-71.918v0c13.24,0,23.972,10.733,23.972,23.972v23.972" fill="#e32400"/><path d="M267.986,232.488v0c39.72,0,71.918-32.198,71.918-71.918v-71.918v0c-13.24,0-23.972,10.733-23.972,23.972v23.972" fill="#b51a00"/><path d="M219.014,168.561v-131.655c-9.383-2.639-19.809-4.19-31.278-4.19v135.846c0,36.714,31.12,66.199,68.352,63.789c4.001-.259,7.449-.93,11.192-1.915-27.514-7.135-48.266-32.127-48.266-61.875Z" fill="#e32400"/><path d="M187.736,32.716v4.19c56.3,14.214,95.919,64.11,95.919,123.664v5.801c0,30.039-19.854,56.686-47.895,64.064c6.444,1.671,13.9,2.373,20.964,1.915c33.977-2.2,60.293-31.93,60.293-65.979v-5.801c.001-70.613-58.384-127.854-129.281-127.854Z" fill="#b51a00"/><polyline points="228.031,232.488 252.004,192.534 275.976,232.488" fill="#009245"/><path d="M331.913,288.596c-34.04,0-61.933,26.816-63.669,60.431l-8.421,8.421v-20.462h8.193v-15.639h-8.193v-32.32h8.193v-15.639h-8.193v-10.433c9.117-3.181,15.719-11.758,15.967-21.887h10.175c2.071,0,4.055,1.301,4.055,3.787c0,2.487-2.195,3.788-4.28,3.788v15.639c11.469,0,19.919-8.534,19.919-19.427c0-4.566-1.523-8.705-4.094-11.987c27.231-12.699,46.159-40.322,46.159-72.298v-79.738h-7.819c-5.895,0-11.416,1.617-16.153,4.426v-60.362h-7.819c-4.317,0-8.62.213-12.897.619L252.004,0L200.978,25.512c-4.249-.402-8.55-.617-12.902-.617h-7.819v60.362c-4.738-2.807-10.259-4.425-16.153-4.425h-7.819v79.738c0,31.948,18.895,59.553,46.09,72.266-2.615,3.286-4.174,7.438-4.174,12.018c0,10.816,9.345,19.616,19.771,19.616v-15.639c-2.085,0-4.132-1.747-4.132-3.978c0-2.487,2.132-3.787,4.203-3.787h10.175c.248,10.13,6.85,18.706,15.967,21.887v33.37h-8.489v15.639h8.489v34.406h-8.489v15.639h8.489v35.394l-.431-.43c-1.736-33.615-29.629-60.431-63.669-60.431h-23.8v7.819c0,35.155,28.6,63.756,63.756,63.756h12.744l11.402,11.402v21.727h-8.489v15.639h8.489v31.314c0,13.124,10.677,23.801,23.801,23.801s23.801-10.677,23.801-23.801v-15.982h-15.639v15.982c0,4.501-3.662,8.162-8.162,8.162-4.501,0-8.162-3.662-8.162-8.162v-55.294h8.193v-15.639h-8.193v-32.32h8.193v-13.574l11.2-11.2h12.744c35.155,0,63.756-28.601,63.756-63.756v-7.819h-23.802v.001h-.004ZM220.04,392.478c-23.869,0-43.735-17.472-47.482-40.297h7.528c23.87,0,43.736,17.472,47.482,40.297h-7.528ZM323.751,166.371v-5.801-23.973v0-23.972c0-6.072,3.368-11.373,8.333-14.131v62.077c0,18.49-7.88,35.168-20.446,46.877c7.647-11.79,12.113-25.934,12.113-41.077ZM308.112,40.788v56.612c-9.779-18.506-23.705-34.495-40.544-46.709c12.788-5.625,26.524-8.989,40.544-9.903ZM252.004,17.485l25.774,12.886c-8.937,2.613-17.604,6.128-25.837,10.535-8.113-4.348-16.715-7.9-25.704-10.54l25.767-12.881ZM171.923,160.57v-62.077c4.966,2.759,8.333,8.059,8.333,14.131v23.972v31.964c0,13.275,3.749,26.237,10.574,37.42-11.67-11.614-18.907-27.682-18.907-45.41Zm55.167,58.287c-4.845-2.409-9.374-5.532-13.449-9.352-11.444-10.726-17.746-25.267-17.746-40.944v-31.964-23.972-71.839c62.559,4.04,112.216,56.222,112.216,119.784v5.801c0,22.833-12.708,42.801-31.285,52.336l-24.823-41.371-24.913,41.521Zm24.914-11.125l9.655,16.093c-1.936.343-3.905.592-5.905.721-4.559.294-9.05.038-13.412-.712l9.662-16.102Zm0,40.91c-4.302,0-7.83-3.348-8.133-7.574h16.266c-.303,4.226-3.83,7.574-8.133,7.574Zm39.954,95.891h-7.528c3.747-22.826,23.613-40.297,47.483-40.297h7.528c-3.747,22.825-23.613,40.297-47.483,40.297Z"/><rect width="15.639" height="57.342999" rx="0" ry="0" transform="translate(211.718994 119.084999)" fill="#fff"/></g><g transform="matrix(.281501 0 0 0.281501 77.935181 69.744027)"><path d="M291.958,352.353h-15.982v0c0-30.893,25.044-55.936,55.936-55.936h15.982v0c.001,30.892-25.043,55.936-55.936,55.936Z" fill="#8cc63f"/><g><path d="M331.913,295.282c-2.732,0-5.396.829-8.023,1.207-.316,27.87-21.007,51.205-47.881,55.075-.002.216-.032,1.06-.032,1.06h15.982c30.893,0,55.936-25.022,55.936-57.343h-15.982v.001Z" fill="#009245"/><path d="M220.04,400.298h15.982v0c0-30.893-25.044-55.936-55.936-55.936h-15.982v0c0,30.892,25.043,55.936,55.936,55.936Z" fill="#009245"/></g><path d="M180.086,344.284c2.732,0,5.396.3,8.023.679.316,27.87,21.007,50.947,47.881,54.819.002.216.032.803.032.803h-15.982c-30.893,0-55.936-25.022-55.936-56.3h15.982v-.001Z" fill="#8cc63f"/><path d="M236.022,232.488v7.991c0,8.827,7.155,15.982,15.982,15.982v0c8.827,0,15.982-7.155,15.982-15.982v-7.991" fill="#009245"/><polygon points="299.95,32.716 252.004,8.742 204.058,32.716 252.004,48.697"/><g><path d="M315.931,160.57v-127.854v0c-23.288,0-45.122,6.226-63.928,17.105" fill="#606060"/><path d="M188.076,168.561c0,36.715,30.95,66.199,68.182,63.789c33.978-2.2,59.672-31.93,59.672-65.979v-5.801c0-70.613-57.243-127.855-127.855-127.855v0v135.847h.001v-.001Z" fill="#606060"/></g><path d="M236.022,232.488v0c-39.72,0-71.918-32.198-71.918-71.918v-71.918v0c13.24,0,23.972,10.733,23.972,23.972v23.972" fill="#444"/><path d="M267.986,232.488v0c39.72,0,71.918-32.198,71.918-71.918v-71.918v0c-13.24,0-23.972,10.733-23.972,23.972v23.972"/><path d="M219.014,168.561v-131.655c-9.383-2.639-19.809-4.19-31.278-4.19v135.846c0,36.714,31.12,66.199,68.352,63.789c4.001-.259,7.449-.93,11.192-1.915-27.514-7.135-48.266-32.127-48.266-61.875Z" fill="#444"/><path d="M187.736,32.716v4.19c56.3,14.214,95.919,64.11,95.919,123.664v5.801c0,30.039-19.854,56.686-47.895,64.064c6.444,1.671,13.9,2.373,20.964,1.915c33.977-2.2,60.293-31.93,60.293-65.979v-5.801c.001-70.613-58.384-127.854-129.281-127.854Z"/><polyline points="228.031,232.488 252.004,192.534 275.976,232.488" fill="#009245"/><path d="M331.913,288.596c-34.04,0-61.933,26.816-63.669,60.431l-8.421,8.421v-20.462h8.193v-15.639h-8.193v-32.32h8.193v-15.639h-8.193v-10.433c9.117-3.181,15.719-11.758,15.967-21.887h10.175c2.071,0,4.055,1.301,4.055,3.787c0,2.487-2.195,3.788-4.28,3.788v15.639c11.469,0,19.919-8.534,19.919-19.427c0-4.566-1.523-8.705-4.094-11.987c27.231-12.699,46.159-40.322,46.159-72.298v-79.738h-7.819c-5.895,0-11.416,1.617-16.153,4.426v-60.362h-7.819c-4.317,0-8.62.213-12.897.619L252.004,0L200.978,25.512c-4.249-.402-8.55-.617-12.902-.617h-7.819v60.362c-4.738-2.807-10.259-4.425-16.153-4.425h-7.819v79.738c0,31.948,18.895,59.553,46.09,72.266-2.615,3.286-4.174,7.438-4.174,12.018c0,10.816,9.345,19.616,19.771,19.616v-15.639c-2.085,0-4.132-1.747-4.132-3.978c0-2.487,2.132-3.787,4.203-3.787h10.175c.248,10.13,6.85,18.706,15.967,21.887v33.37h-8.489v15.639h8.489v34.406h-8.489v15.639h8.489v35.394l-.431-.43c-1.736-33.615-29.629-60.431-63.669-60.431h-23.8v7.819c0,35.155,28.6,63.756,63.756,63.756h12.744l11.402,11.402v21.727h-8.489v15.639h8.489v31.314c0,13.124,10.677,23.801,23.801,23.801s23.801-10.677,23.801-23.801v-15.982h-15.639v15.982c0,4.501-3.662,8.162-8.162,8.162-4.501,0-8.162-3.662-8.162-8.162v-55.294h8.193v-15.639h-8.193v-32.32h8.193v-13.574l11.2-11.2h12.744c35.155,0,63.756-28.601,63.756-63.756v-7.819h-23.802v.001h-.004ZM220.04,392.478c-23.869,0-43.735-17.472-47.482-40.297h7.528c23.87,0,43.736,17.472,47.482,40.297h-7.528ZM323.751,166.371v-5.801-23.973v0-23.972c0-6.072,3.368-11.373,8.333-14.131v62.077c0,18.49-7.88,35.168-20.446,46.877c7.647-11.79,12.113-25.934,12.113-41.077ZM308.112,40.788v56.612c-9.779-18.506-23.705-34.495-40.544-46.709c12.788-5.625,26.524-8.989,40.544-9.903ZM252.004,17.485l25.774,12.886c-8.937,2.613-17.604,6.128-25.837,10.535-8.113-4.348-16.715-7.9-25.704-10.54l25.767-12.881ZM171.923,160.57v-62.077c4.966,2.759,8.333,8.059,8.333,14.131v23.972v31.964c0,13.275,3.749,26.237,10.574,37.42-11.67-11.614-18.907-27.682-18.907-45.41Zm55.167,58.287c-4.845-2.409-9.374-5.532-13.449-9.352-11.444-10.726-17.746-25.267-17.746-40.944v-31.964-23.972-71.839c62.559,4.04,112.216,56.222,112.216,119.784v5.801c0,22.833-12.708,42.801-31.285,52.336l-24.823-41.371-24.913,41.521Zm24.914-11.125l9.655,16.093c-1.936.343-3.905.592-5.905.721-4.559.294-9.05.038-13.412-.712l9.662-16.102Zm0,40.91c-4.302,0-7.83-3.348-8.133-7.574h16.266c-.303,4.226-3.83,7.574-8.133,7.574Zm39.954,95.891h-7.528c3.747-22.826,23.613-40.297,47.483-40.297h7.528c-3.747,22.825-23.613,40.297-47.483,40.297Z"/><rect width="15.639" height="57.342999" rx="0" ry="0" transform="translate(211.718994 119.084999)" fill="#fff"/></g></svg>
