<svg id="eHYiWTpuDaV1" xmlns="http://www.w3.org/2000/svg" xmlns:xlink="http://www.w3.org/1999/xlink" viewBox="0 0 700 700" shape-rendering="geometricPrecision" text-rendering="geometricPrecision" project-id="ac59a8281562454caf090d1c35aee689" export-id="3bb985563b32439d95f27761356b523d" cached="false"><g transform="translate(31.499999 34.186803)"><rect width="477.192777" height="100.608449" rx="0" ry="0" transform="translate(78.221691 333.199731)" fill="#f898c7" stroke-width="0"/><rect width="96.031921" height="44.086261" rx="0" ry="0" transform="translate(106.291894 413.098014)" fill="#f898c7" stroke-width="0"/><rect width="61.421293" height="29.14797" rx="0" ry="0" transform="translate(121.512135 446.217712)" fill="#f898c7" stroke-width="0"/><rect width="61.421293" height="29.14797" rx="0" ry="0" transform="translate(286.002452 446.760607)" fill="#f898c7" stroke-width="0"/><rect width="61.421293" height="29.14797" rx="0" ry="0" transform="translate(450.271075 453.123111)" fill="#f898c7" stroke-width="0"/><rect width="96.031921" height="44.086261" rx="0" ry="0" transform="matrix(1.051267 0 0 1 267.32058 415.083878)" fill="#f898c7" stroke-width="0"/><rect width="96.031921" height="44.086261" rx="0" ry="0" transform="matrix(1.092253 0 0 1 427.41891 415.262467)" fill="#f898c7" stroke-width="0"/><rect width="38.126098" height="37.688075" rx="0" ry="0" transform="translate(536.351419 399.617522)" fill="#f898c7" stroke-width="0"/><rect width="53.543899" height="30.501503" rx="0" ry="0" transform="translate(60.358115 413.098013)" fill="#f898c7" stroke-width="0"/></g><g transform="translate(31.499999 34.186803)"><rect width="58.697942" height="41.971656" rx="0" ry="0" transform="translate(19.523751 534.322835)" fill="#1d55c6" stroke-width="0"/><rect width="20.762572" height="79.751368" rx="0" ry="0" transform="translate(40.956084 515.296414)" fill="#1d55c6" stroke-width="0"/><rect width="70.174765" height="39.739119" rx="0" ry="0" transform="translate(51.33737 555.308664)" fill="#1d55c6" stroke-width="0"/><rect width="99.893441" height="42.253864" rx="0" ry="0" transform="translate(82.481229 575.119264)" fill="#1d55c6" stroke-width="0"/><rect width="307.913923" height="40.525146" rx="0" ry="0" transform="translate(162.543039 595.04778)" fill="#1d55c6" stroke-width="0"/><rect width="100.463343" height="41.078637" rx="0" ry="0" transform="translate(452.464431 576.294491)" fill="#1d55c6" stroke-width="0"/><rect width="82.739026" height="39.739119" rx="0" ry="0" transform="translate(512.288233 555.308665)" fill="#1d55c6" stroke-width="0"/><rect width="61.05239" height="40.97165" rx="0" ry="0" transform="translate(553.657746 534.322835)" fill="#1d55c6" stroke-width="0"/><rect width="20.549742" height="24.561158" rx="0" ry="0" transform="translate(574.477517 515.296414)" fill="#1d55c6" stroke-width="0"/></g><g transform="translate(31.499999 32.999985)"><rect width="19.682877" height="19.199798" rx="0" ry="0" transform="translate(595.027259 516.309856)" stroke-width="0"/><rect width="21.549743" height="19.199798" rx="0" ry="0" transform="translate(552.927774 516.309856)" stroke-width="0"/><g transform="translate(0 0.000001)"><rect width="296.568973" height="21.585717" rx="0" ry="0" transform="matrix(1.038254 0 0 1 164.543039 184.192761)" stroke-width="0"/><rect width="61.941621" height="23.96528" rx="0" ry="0" transform="translate(120.433049 205.312136)" stroke-width="0"/><rect width="42.211358" height="18.100453" rx="0" ry="0" transform="translate(79.221691 229.277416)" stroke-width="0"/><rect width="17.863576" height="166.463998" rx="0" ry="0" transform="translate(60.358115 247.844211)" stroke-width="0"/><rect width="19.402032" height="103.467992" rx="0" ry="0" transform="translate(40.956083 412.841867)" stroke-width="0"/><rect width="21.432333" height="19.199798" rx="0" ry="0" transform="translate(19.523751 516.309859)" stroke-width="0"/><rect width="19.523751" height="41.971653" rx="0" ry="0" transform="translate(.000001 535.509657)" stroke-width="0"/><rect width="21.432332" height="18.753291" rx="0" ry="0" transform="translate(19.523751 577.481308)" stroke-width="0"/><rect width="41.525146" height="22.325347" rx="0" ry="0" transform="translate(40.956083 596.2346)" stroke-width="0"/><rect width="82.06181" height="19.199797" rx="0" ry="0" transform="translate(80.481229 617.559948)" stroke-width="0"/><rect width="307.913923" height="23.240255" rx="0" ry="0" transform="translate(163.543039 635.759744)" stroke-width="0"/><rect width="82.470812" height="18.199798" rx="0" ry="0" transform="translate(470.456962 618.559947)" stroke-width="0"/><rect width="43.099486" height="22.325348" rx="0" ry="0" transform="translate(552.927774 596.234599)" stroke-width="0"/><rect width="19.682877" height="18.753292" rx="0" ry="0" transform="translate(595.027259 577.481307)" stroke-width="0"/><rect width="22.289864" height="41.971653" rx="0" ry="0" transform="translate(614.710136 535.509654)" stroke-width="0"/><rect width="20.549742" height="103.467992" rx="0" ry="0" transform="translate(574.477517 413.308209)" stroke-width="0"/><rect width="41.235406" height="18.100453" rx="0" ry="0" transform="translate(511.692368 229.743758)" stroke-width="0"/><rect width="40.235406" height="23.96528" rx="0" ry="0" transform="translate(470.456962 205.778478)" stroke-width="0"/><rect width="17.863576" height="19.199798" rx="0" ry="0" transform="translate(60.358115 516.309859)" stroke-width="0"/><rect width="43.290443" height="20.985827" rx="0" ry="0" transform="translate(78.221692 535.509654)" stroke-width="0"/><rect width="60.862536" height="20.985828" rx="0" ry="0" transform="translate(121.512134 556.49548)" stroke-width="0"/><rect width="269.595152" height="18.753293" rx="0" ry="0" transform="translate(182.37467 577.481308)" stroke-width="0"/><rect width="59.722546" height="20.985827" rx="0" ry="0" transform="translate(451.969822 556.495482)" stroke-width="0"/><rect width="41.235406" height="20.985828" rx="0" ry="0" transform="translate(511.692368 535.509654)" stroke-width="0"/><rect width="21.549743" height="166.463998" rx="0" ry="0" transform="translate(552.927774 246.844211)" stroke-width="0"/></g></g><g transform="translate(31.499999 33.439559)"><g transform="translate(0 0.328799)"><rect width="474.706082" height="83.231999" rx="0" ry="0" transform="translate(78.221692 246.377867)" fill="#f370a9" stroke-width="0"/><rect width="269.595152" height="144.245502" rx="0" ry="0" transform="matrix(1.137147 0 0 1 163.887587 203.351924)" fill="#f370a9" stroke-width="0"/><rect width="390.180234" height="48.157471" rx="0" ry="0" transform="translate(121.512134 228.277413)" fill="#f370a9" stroke-width="0"/></g><rect width="38.780775" height="30.21091" rx="0" ry="0" transform="translate(163.543039 236.140821)" fill="#dc004a" stroke-width="0"/><rect width="67.507588" height="32.698009" rx="0" ry="0" transform="translate(262.224913 275.248066)" fill="#dc004a" stroke-width="0"/><rect width="75.216872" height="39.107246" rx="0" ry="0" transform="translate(397.24009 236.14082)" fill="#dc004a" stroke-width="0"/><rect width="21.868655" height="20.281904" rx="0" ry="0" transform="translate(392.486035 308.141142)" fill="#dc004a" stroke-width="0"/><rect width="44.688121" height="18.100453" rx="0" ry="0" transform="translate(304.060603 227.090594)" fill="#dc004a" stroke-width="0"/><rect width="27.573521" height="23.770278" rx="0" ry="0" transform="translate(189.01246 298.679308)" fill="#dc004a" stroke-width="0"/><rect width="36.130822" height="21.032867" rx="0" ry="0" transform="translate(231.798958 215.107954)" fill="#dc004a" stroke-width="0"/><rect width="15.220241" height="15.552013" rx="0" ry="0" transform="translate(106.291893 259.696054)" fill="#dc004a" stroke-width="0"/><rect width="15.212978" height="8.896336" rx="0" ry="0" transform="translate(504.681744 266.351731)" fill="#dc004a" stroke-width="0"/><rect width="11.374133" height="26.685024" rx="0" ry="0" transform="translate(470.456962 291.59707)" fill="#dc004a" stroke-width="0"/><rect width="19.967033" height="11.717906" rx="0" ry="0" transform="translate(337.338991 318.282094)" fill="#dc004a" stroke-width="0"/><rect width="19.016221" height="16.00715" rx="0" ry="0" transform="translate(357.306024 270.799899)" fill="#dc004a" stroke-width="0"/><rect width="10.458923" height="16.063766" rx="0" ry="0" transform="translate(376.322246 215.107954)" fill="#dc004a" stroke-width="0"/></g><g transform="translate(31.499999 33.768341)"><rect width="39.95182" height="41.344078" rx="0" ry="0" transform="matrix(1.100121 0 0 1 77.481221 292.655922)" fill="#ffc6e1" stroke-width="0"/><rect width="60.862536" height="18.94777" rx="0" ry="0" transform="translate(120.512134 329.609865)" fill="#ffc6e1" stroke-width="0"/><rect width="269.595152" height="21.963961" rx="0" ry="0" transform="translate(182.37467 348.557635)" fill="#ffc6e1" stroke-width="0"/><rect width="59.722546" height="18.557635" rx="0" ry="0" transform="matrix(1 0 0 1.124853 451.969822 328.841512)" fill="#ffc6e1" stroke-width="0"/><rect width="41.235406" height="40.953943" rx="0" ry="0" transform="matrix(1 0 0 1.195748 511.692368 284.647596)" fill="#ffc6e1" stroke-width="0"/></g><g transform="translate(31.499999 34.186802)"><rect width="64.130559" height="121.996153" rx="0" ry="0" transform="translate(202.799221 454.298338)" fill="#ffecd5" stroke-width="0"/><rect width="64.130559" height="121.996153" rx="0" ry="0" transform="translate(367.996878 454.298338)" fill="#ffecd5" stroke-width="0"/><rect width="104.804547" height="100.385914" rx="0" ry="0" transform="translate(182.933427 474.73335)" fill="#ffecd5" stroke-width="0"/><rect width="104.804547" height="100.385914" rx="0" ry="0" transform="translate(347.659884 474.908571)" fill="#ffecd5" stroke-width="0"/><rect width="39.508799" height="60.824699" rx="0" ry="0" transform="translate(60.358116 453.123111)" fill="#ffecd5" stroke-width="0"/><rect width="42.211357" height="58.414258" rx="0" ry="0" transform="translate(78.221693 474.73335)" fill="#ffecd5" stroke-width="0"/><rect width="75.110447" height="60.895791" rx="0" ry="0" transform="translate(113.902014 493.237643)" fill="#ffecd5" stroke-width="0"/><rect width="71.414849" height="82.324584" rx="0" ry="0" transform="translate(277.333877 492.969901)" fill="#ffecd5" stroke-width="0"/><rect width="61.421293" height="63.513988" rx="0" ry="0" transform="translate(450.271076 491.794675)" fill="#ffecd5" stroke-width="0"/><rect width="43.722099" height="58.957153" rx="0" ry="0" transform="translate(511.692369 475.365682)" fill="#ffecd5" stroke-width="0"/><rect width="38.126098" height="60.824699" rx="0" ry="0" transform="translate(536.351419 453.123111)" fill="#ffecd5" stroke-width="0"/></g><g transform="translate(31.5 34.011575)"><rect width="45.933778" height="21.933126" rx="0" ry="0" transform="translate(60.358115 433.80818)" fill="#fa3376" stroke-width="0"/><rect width="21.64522" height="19.624376" rx="0" ry="0" transform="translate(99.866914 455.741306)" fill="#fa3376" stroke-width="0"/><rect width="60.862536" height="19.047188" rx="0" ry="0" transform="translate(121.512134 475.365682)" fill="#fa3376" stroke-width="0"/><rect width="19.865794" height="19.624376" rx="0" ry="0" transform="translate(182.933427 455.741306)" fill="#fa3376" stroke-width="0"/><rect width="65.130559" height="21.933126" rx="0" ry="0" transform="translate(202.799221 432.365211)" fill="#fa3376" stroke-width="0"/><rect width="20.808193" height="19.624376" rx="0" ry="0" transform="translate(266.92978 454.298337)" fill="#fa3376" stroke-width="0"/><rect width="59.584535" height="19.047188" rx="0" ry="0" transform="translate(287.737973 473.922713)" fill="#fa3376" stroke-width="0"/><rect width="22.527065" height="19.624376" rx="0" ry="0" transform="translate(348.748725 454.298337)" fill="#fa3376" stroke-width="0"/><rect width="63.572736" height="21.933126" rx="0" ry="0" transform="translate(368.27579 432.365211)" fill="#fa3376" stroke-width="0"/><rect width="20.121296" height="19.624376" rx="0" ry="0" transform="translate(431.848526 453.123111)" fill="#fa3376" stroke-width="0"/><rect width="59.722546" height="19.047188" rx="0" ry="0" transform="translate(451.969822 472.747487)" fill="#fa3376" stroke-width="0"/><rect width="24.063186" height="19.624376" rx="0" ry="0" transform="translate(512.288233 453.123111)" fill="#fa3376" stroke-width="0"/><rect width="38.126098" height="21.933126" rx="0" ry="0" transform="matrix(1.211999 0 0 1 532.310072 431.189985)" fill="#fa3376" stroke-width="0"/></g><rect width="14.626938" height="39.51204" rx="0" ry="0" transform="translate(359.815019 38.000839)" fill="#ee9108" stroke-width="0"/><rect width="26.003446" height="20.248658" rx="0" ry="0" transform="translate(333.811569 17.752184)" fill="#ee9108" stroke-width="0"/><rect width="14.626938" height="39.51204" rx="0" ry="0" transform="translate(480.080968 54.32029)" fill="#ee9108" stroke-width="0"/><rect width="26.003446" height="20.248658" rx="0" ry="0" transform="translate(454.077518 34.071635)" fill="#ee9108" stroke-width="0"/><rect width="14.626938" height="39.51204" rx="0" ry="0" transform="translate(234.673427 57.756859)" fill="#ee9108" stroke-width="0"/><rect width="26.003446" height="20.248658" rx="0" ry="0" transform="translate(208.669977 37.508203)" fill="#ee9108" stroke-width="0"/><rect width="14.62694" height="39.51204" rx="0" ry="0" transform="translate(439.450579 53.827651)" fill="#ee9108" stroke-width="0"/><rect width="14.62694" height="39.51204" rx="0" ry="0" transform="translate(319.184629 38.000839)" fill="#ee9108" stroke-width="0"/><rect width="14.62694" height="39.51204" rx="0" ry="0" transform="translate(194.043038 57.756859)" fill="#ee9108" stroke-width="0"/><rect width="26.003447" height="66.633834" rx="0" ry="0" transform="translate(333.81157 30.635064)" fill="#ffe301" stroke-width="0"/><rect width="26.003447" height="66.633834" rx="0" ry="0" transform="translate(454.077514 53.388082)" fill="#ffe301" stroke-width="0"/><g transform="translate(28.313296 16.008131)"><rect width="55.257326" height="206.402364" rx="0" ry="0" transform="translate(411.137282 104.01379)" stroke-width="0"/><rect width="26.003447" height="160.896331" rx="0" ry="0" transform="translate(425.764222 126.766807)" fill="#7fd613" stroke-width="0"/></g><g transform="translate(28.313292 16.00813)"><rect width="55.257326" height="206.402364" rx="0" ry="0" transform="translate(290.871337 81.260774)" stroke-width="0"/><rect width="26.003447" height="160.896331" rx="0" ry="0" transform="translate(305.498277 104.013791)" fill="#7fd613" stroke-width="0"/></g><g transform="translate(28.313288 16.008131)"><rect width="55.257326" height="206.402364" rx="0" ry="0" transform="translate(165.729746 104.01379)" stroke-width="0"/><rect width="26.003447" height="160.896331" rx="0" ry="0" transform="translate(180.356686 126.766807)" fill="#7fd613" stroke-width="0"/></g><rect width="26.003447" height="66.633834" rx="0" ry="0" transform="translate(208.669977 53.38808)" fill="#ffe301" stroke-width="0"/></svg>
