<svg id="e8JL4Tv965Z1" xmlns="http://www.w3.org/2000/svg" xmlns:xlink="http://www.w3.org/1999/xlink" viewBox="0 0 266 144" shape-rendering="geometricPrecision" text-rendering="geometricPrecision" project-id="3eb17a68fedd42d58f72922b7d98bf1f" export-id="b9435ed1a30e4ea4938f23b20722aa66" cached="false"><rect width="239.020367" height="121.159164" rx="0" ry="0" transform="matrix(1.008367 0 0 1 13.088971 10.554271)" fill="#caaaca" stroke-width="0"/><line x1="-119.510184" y1="0" x2="119.510184" y2="0" transform="matrix(.98662 0 0 1 133 5.542028)" fill="none" stroke="#451d4b" stroke-width="10"/><line x1="-119.510184" y1="0" x2="119.510184" y2="0" transform="translate(134.599095 136.456293)" fill="none" stroke="#451d4b" stroke-width="10"/><g transform="translate(1.000001 0.506121)"><line x1="0" y1="-9.012243" x2="0" y2="9.012243" transform="translate(248.19998 9.554271)" fill="none" stroke="#451d4b" stroke-width="10" stroke-miterlimit="10"/><line x1="0" y1="-9.012243" x2="0" y2="9.012243" transform="matrix(0 1-1 0 252.199981 19.554272)" fill="none" stroke="#451d4b" stroke-width="10" stroke-miterlimit="10"/></g><line x1="0" y1="-58.579581" x2="0" y2="58.579582" transform="translate(259.109279 73.133853)" fill="none" stroke="#451d4b" stroke-width="10"/><line x1="0" y1="-58.579581" x2="0" y2="58.579582" transform="matrix(1 0 0 1.085354 10.109279 73.133853)" fill="none" stroke="#451d4b" stroke-width="10"/><rect width="10.093877" height="10.000001" rx="0" ry="0" transform="translate(15.088912 10.554271)" fill="#f4d9e5" stroke-width="0"/><rect width="9.012242" height="16.551015" rx="0" ry="0" transform="translate(25.182789 19.554273)" fill="#f4d9e5" stroke-width="0"/><rect width="16.45714" height="10.342034" rx="0" ry="0" transform="translate(34.195031 36.105288)" fill="#f4d9e5" stroke-width="0"/><rect width="8.935113" height="8.935113" rx="0" ry="0" transform="translate(50.652171 46.447322)" fill="#f4d9e5" stroke-width="0"/><rect width="19.668964" height="9.910596" rx="0" ry="0" transform="translate(59.587284 55.382435)" fill="#f4d9e5" stroke-width="0"/><rect width="10.111106" height="10.111106" rx="0" ry="0" transform="translate(79.256248 65.293031)" fill="#f4d9e5" stroke-width="0"/><g transform="matrix(-1 0 0 1 402.187739-4.504404)"><rect width="19.668964" height="9.910596" rx="0" ry="0" transform="matrix(-.69103 0 0-1 226.12877 77.797434)" fill="#f4d9e5" stroke-width="0"/><rect width="8.935113" height="8.935113" rx="0" ry="0" transform="matrix(-1.447672 0 0-1 205.498368 59.886837)" fill="#f4d9e5" stroke-width="0"/><rect width="16.45714" height="10.342034" rx="0" ry="0" transform="matrix(-1 0 0-1 194.563255 50.951725)" fill="#f4d9e5" stroke-width="0"/><rect width="9.012242" height="16.551015" rx="0" ry="0" transform="matrix(-1 0 0-1 178.106115 40.60969)" fill="#f4d9e5" stroke-width="0"/><rect width="9.012242" height="16.551015" rx="0" ry="0" transform="matrix(-1 0 0-.511244 213.043054 67.797432)" fill="#f4d9e5" stroke-width="0"/><rect width="10.093877" height="10.000001" rx="0" ry="0" transform="matrix(-1 0 0-1 169.093872 25.058676)" fill="#f4d9e5" stroke-width="0"/></g><g><rect width="65.734687" height="31.73877" rx="0" ry="0" transform="translate(100.318369 49.423646)" fill="#f3324e" stroke-width="0"/><rect width="21.848981" height="44.202444" rx="0" ry="0" transform="translate(121.085713 61.766502)" fill="#f3324e" stroke-width="0"/><rect width="23.118362" height="30.333901" rx="0" ry="0" transform="translate(142.934694 40.215484)" fill="#f3324e" stroke-width="0"/><rect width="17.63265" height="21.15918" rx="0" ry="0" transform="translate(158.999996 51.186912)" fill="#f3324e" stroke-width="0"/><rect width="11.559181" height="15.327358" rx="0" ry="0" transform="translate(142.934695 77.635886)" fill="#f3324e" stroke-width="0"/><rect width="21.15918" height="10.971427" rx="0" ry="0" transform="translate(100.338781 40.961608)" fill="#9c0324" stroke-width="0"/><rect width="21.15918" height="10.971427" rx="0" ry="0" transform="translate(89.759191 51.933035)" fill="#9c0324" stroke-width="0"/><rect width="21.15918" height="10.971427" rx="0" ry="0" transform="matrix(0 1-1 0 100.338781 51.933036)" fill="#9c0324" stroke-width="0"/><rect width="21.15918" height="10.971427" rx="0" ry="0" transform="matrix(0 1-1 0 159.97959 51.933036)" fill="#f4d6dc" stroke-width="0"/><rect width="10.57959" height="10.57959" rx="0" ry="0" transform="translate(100.338781 73.092215)" fill="#9c0324" stroke-width="0"/><rect width="10.57959" height="10.57959" rx="0" ry="0" transform="matrix(1 0 0 1.41991 110.918371 79.90854)" fill="#9c0324" stroke-width="0"/><rect width="10.57959" height="10.57959" rx="0" ry="0" transform="matrix(1 0 0 1.14429 121.106124 93.946103)" fill="#9c0324" stroke-width="0"/></g></svg>
