<!DOCTYPE svg PUBLIC "-//W3C//DTD SVG 1.1//EN" "http://www.w3.org/Graphics/SVG/1.1/DTD/svg11.dtd">
<!-- Uploaded to: SVG Repo, www.svgrepo.com, Transformed by: SVG Repo Mixer Tools -->
<svg version="1.1" id="Layer_1" xmlns="http://www.w3.org/2000/svg" xmlns:xlink="http://www.w3.org/1999/xlink" viewBox="0 0 512 512" xml:space="preserve" width="800px" height="800px" fill="#000000">
<g id="SVGRepo_bgCarrier" stroke-width="0"/>
<g id="SVGRepo_tracerCarrier" stroke-linecap="round" stroke-linejoin="round"/>
<g id="SVGRepo_iconCarrier"> <path style="fill:#8CC63F;" d="M291.958,352.353h-15.982l0,0c0-30.893,25.044-55.936,55.936-55.936h15.982l0,0 C347.895,327.309,322.851,352.353,291.958,352.353z"/> <g> <path style="fill:#009245;" d="M331.913,295.282c-2.732,0-5.396,0.829-8.023,1.207c-0.316,27.87-21.007,51.205-47.881,55.075 c-0.002,0.216-0.032,1.06-0.032,1.06h15.982c30.893,0,55.936-25.022,55.936-57.343H331.913z"/> <path style="fill:#009245;" d="M220.04,400.298h15.982l0,0c0-30.893-25.044-55.936-55.936-55.936h-15.982l0,0 C164.104,375.254,189.147,400.298,220.04,400.298z"/> </g> <path style="fill:#8CC63F;" d="M180.086,344.284c2.732,0,5.396,0.3,8.023,0.679c0.316,27.87,21.007,50.947,47.881,54.819 c0.002,0.216,0.032,0.803,0.032,0.803H220.04c-30.893,0-55.936-25.022-55.936-56.3H180.086z"/> <path style="fill:#009245;" d="M236.022,232.488v7.991c0,8.827,7.155,15.982,15.982,15.982l0,0c8.827,0,15.982-7.155,15.982-15.982 v-7.991"/> <polygon style="fill:#b51a00;" points="299.95,32.716 252.004,8.742 204.058,32.716 252.004,48.697 "/> <g> <path style="fill:#b51a00;" d="M315.931,160.57V32.716l0,0c-23.288,0-45.122,6.226-63.928,17.105"/> <path style="fill:#b51a00;" d="M188.076,168.561c0,36.715,30.95,66.199,68.182,63.789c33.978-2.2,59.672-31.93,59.672-65.979 v-5.801c0-70.613-57.243-127.855-127.855-127.855l0,0v135.847H188.076z"/> </g> <path style="fill:#e32400;" d="M236.022,232.488L236.022,232.488c-39.72,0-71.918-32.198-71.918-71.918V88.652l0,0 c13.24,0,23.972,10.733,23.972,23.972v23.972"/> <path style="fill:#b51a00;" d="M267.986,232.488L267.986,232.488c39.72,0,71.918-32.198,71.918-71.918V88.652l0,0 c-13.24,0-23.972,10.733-23.972,23.972v23.972"/> <path style="fill:#e32400;" d="M219.014,168.561V36.906c-9.383-2.639-19.809-4.19-31.278-4.19v135.846 c0,36.714,31.12,66.199,68.352,63.789c4.001-0.259,7.449-0.93,11.192-1.915C239.766,223.301,219.014,198.309,219.014,168.561z"/> <path style="fill:#b51a00;" d="M187.736,32.716v4.19c56.3,14.214,95.919,64.11,95.919,123.664v5.801 c0,30.039-19.854,56.686-47.895,64.064c6.444,1.671,13.9,2.373,20.964,1.915c33.977-2.2,60.293-31.93,60.293-65.979v-5.801 C317.018,89.957,258.633,32.716,187.736,32.716z"/> <polyline style="fill:#009245;" points="228.031,232.488 252.004,192.534 275.976,232.488 "/> <path d="M331.913,288.596c-34.04,0-61.933,26.816-63.669,60.431l-8.421,8.421v-20.462h8.193v-15.639h-8.193v-32.32h8.193v-15.639 h-8.193v-10.433c9.117-3.181,15.719-11.758,15.967-21.887h10.175c2.071,0,4.055,1.301,4.055,3.787c0,2.487-2.195,3.788-4.28,3.788 v15.639c11.469,0,19.919-8.534,19.919-19.427c0-4.566-1.523-8.705-4.094-11.987c27.231-12.699,46.159-40.322,46.159-72.298V80.832 h-7.819c-5.895,0-11.416,1.617-16.153,4.426V24.896h-7.819c-4.317,0-8.62,0.213-12.897,0.619L252.004,0l-51.026,25.512 c-4.249-0.402-8.55-0.617-12.902-0.617h-7.819v60.362c-4.738-2.807-10.259-4.425-16.153-4.425h-7.819v79.738 c0,31.948,18.895,59.553,46.09,72.266c-2.615,3.286-4.174,7.438-4.174,12.018c0,10.816,9.345,19.616,19.771,19.616v-15.639 c-2.085,0-4.132-1.747-4.132-3.978c0-2.487,2.132-3.787,4.203-3.787h10.175c0.248,10.13,6.85,18.706,15.967,21.887v33.37h-8.489 v15.639h8.489v34.406h-8.489v15.639h8.489v35.394l-0.431-0.43c-1.736-33.615-29.629-60.431-63.669-60.431h-23.8v7.819 c0,35.155,28.6,63.756,63.756,63.756h12.744l11.402,11.402v21.727h-8.489v15.639h8.489v31.314c0,13.124,10.677,23.801,23.801,23.801 c13.124,0,23.801-10.677,23.801-23.801v-15.982h-15.639v15.982c0,4.501-3.662,8.162-8.162,8.162c-4.501,0-8.162-3.662-8.162-8.162 v-55.294h8.193v-15.639h-8.193v-32.32h8.193v-13.574l11.2-11.2h12.744c35.155,0,63.756-28.601,63.756-63.756v-7.819h-23.802V288.596 z M220.04,392.478c-23.869,0-43.735-17.472-47.482-40.297h7.528c23.87,0,43.736,17.472,47.482,40.297H220.04z M323.751,166.371 v-5.801v-23.973l0,0v-23.972c0-6.072,3.368-11.373,8.333-14.131v62.077c0,18.49-7.88,35.168-20.446,46.877 C319.285,195.658,323.751,181.514,323.751,166.371z M308.112,40.788V97.4c-9.779-18.506-23.705-34.495-40.544-46.709 C280.356,45.066,294.092,41.702,308.112,40.788z M252.004,17.485l25.774,12.886c-8.937,2.613-17.604,6.128-25.837,10.535 c-8.113-4.348-16.715-7.9-25.704-10.54L252.004,17.485z M171.923,160.57V98.493c4.966,2.759,8.333,8.059,8.333,14.131v23.972v31.964 c0,13.275,3.749,26.237,10.574,37.42C179.16,194.366,171.923,178.298,171.923,160.57z M227.09,218.857 c-4.845-2.409-9.374-5.532-13.449-9.352c-11.444-10.726-17.746-25.267-17.746-40.944v-31.964v-23.972V40.786 c62.559,4.04,112.216,56.222,112.216,119.784v5.801c0,22.833-12.708,42.801-31.285,52.336l-24.823-41.371L227.09,218.857z M252.004,207.732l9.655,16.093c-1.936,0.343-3.905,0.592-5.905,0.721c-4.559,0.294-9.05,0.038-13.412-0.712L252.004,207.732z M252.004,248.642c-4.302,0-7.83-3.348-8.133-7.574h16.266C259.834,245.294,256.307,248.642,252.004,248.642z M291.958,344.533 h-7.528c3.747-22.826,23.613-40.297,47.483-40.297h7.528C335.694,327.061,315.828,344.533,291.958,344.533z"/> <rect x="211.719" y="119.085" style="fill:#FFFFFF;" width="15.639" height="57.343"/> </g>
</svg>