<svg id="edcMD69Knag1" xmlns="http://www.w3.org/2000/svg" xmlns:xlink="http://www.w3.org/1999/xlink" viewBox="0 0 1280 1280" shape-rendering="geometricPrecision" text-rendering="geometricPrecision" project-id="b76ec2ac3d4d400880a8c41133503363" export-id="e3e2af24062c4b8497212b88edd10c96" cached="false"><g transform="translate(0 0.788017)"><rect width="936.124105" height="287.771486" rx="0" ry="0" transform="matrix(1 0 0 1.019715 168.786016 315.98132)" fill="#f40202" stroke-width="0"/><rect width="286.825906" height="429.60847" rx="0" ry="0" transform="matrix(1 0 0 1.155539 747.165722 214.489099)" fill="#f40202" stroke-width="0"/><rect width="291.553803" height="426.771726" rx="0" ry="0" transform="matrix(1 0 0 1.013294 239.704508 245.062783)" fill="#f40202" stroke-width="0"/><rect width="215.907412" height="424.880566" rx="0" ry="0" transform="matrix(.848156 0 0 1 547.286485 606.42622)" fill="#f40202" stroke-width="0"/><rect width="648.510216" height="144.673728" rx="0" ry="0" transform="matrix(1.00486 0 0 1 311.411071 675.459246)" fill="#f40202" stroke-width="0"/><rect width="362.472298" height="106.377738" rx="0" ry="0" transform="translate(457.187885 783.885743)" fill="#f40202" stroke-width="0"/></g><rect width="70.918492" height="70.918492" rx="0" ry="0" transform="translate(963.073136 675.459246)" fill="#d2dbed" stroke-width="0"/><g transform="translate(0 0.000001)"><rect width="70.918492" height="70.918492" rx="0" ry="0" transform="translate(1033.991628 248.687519)" stroke-width="0"/><rect width="293.129771" height="72.49446" rx="0" ry="0" transform="translate(238.128539 176.193059)" stroke-width="0"/><rect width="70.918492" height="70.918492" rx="0" ry="0" transform="translate(531.25831 248.687519)" stroke-width="0"/><rect width="72.49446" height="72.49446" rx="0" ry="0" transform="translate(602.176802 319.606011)" stroke-width="0"/><rect width="70.918492" height="70.918492" rx="0" ry="0" transform="translate(676.24723 248.687519)" stroke-width="0"/><rect width="286.825906" height="72.49446" rx="0" ry="0" transform="translate(747.165722 176.193059)" stroke-width="0"/><rect width="70.918492" height="70.918492" rx="0" ry="0" transform="translate(1033.991628 607.377497)" stroke-width="0"/><rect width="70.918492" height="70.918492" rx="0" ry="0" transform="translate(168.786015 607.377497)" stroke-width="0"/><rect width="70.918492" height="70.918492" rx="0" ry="0" transform="matrix(1 0 0 1.04 963.073136 674.040875)" stroke-width="0"/><rect width="70.918492" height="70.918492" rx="0" ry="0" transform="translate(239.704507 678.295989)" stroke-width="0"/><rect width="70.918492" height="70.918492" rx="0" ry="0" transform="translate(315.350901 749.214481)" stroke-width="0"/><rect width="70.918492" height="70.918492" rx="0" ry="0" transform="translate(386.269393 820.132973)" stroke-width="0"/><rect width="70.918492" height="70.918492" rx="0" ry="0" transform="translate(461.915786 891.051465)" stroke-width="0"/><rect width="70.918492" height="70.918492" rx="0" ry="0" transform="translate(532.834278 961.969957)" stroke-width="0"/><rect width="70.918492" height="70.918492" rx="0" ry="0" transform="matrix(1.044442 0 0 1 889.002795 749.214481)" stroke-width="0"/><rect width="70.918492" height="70.918492" rx="0" ry="0" transform="translate(819.660183 820.132973)" stroke-width="0"/><rect width="70.918492" height="70.918492" rx="0" ry="0" transform="translate(747.165722 891.051465)" stroke-width="0"/><rect width="70.918492" height="70.918492" rx="0" ry="0" transform="translate(676.24723 961.969957)" stroke-width="0"/><rect width="70.918492" height="70.918492" rx="0" ry="0" transform="translate(603.75277 1032.888449)" stroke-width="0"/><rect width="70.918492" height="70.918492" rx="0" ry="0" transform="translate(168.786015 245.850776)" stroke-width="0"/><rect width="70.918494" height="288.401872" rx="0" ry="0" transform="translate(98.29156 319.606011)" stroke-width="0"/><rect width="70.918494" height="288.401872" rx="0" ry="0" transform="translate(1104.91012 319.606011)" stroke-width="0"/></g><g transform="translate(.000001 0)"><rect width="75.646394" height="143.412953" rx="0" ry="0" transform="translate(239.704507 389.263728)" fill="#fff" stroke-width="0"/><rect width="146.564886" height="71.706476" rx="0" ry="0" transform="translate(239.704507 389.263728)" fill="#fff" stroke-width="0"/><rect width="146.564885" height="72.49446" rx="0" ry="0" transform="translate(315.350902 316.769268)" fill="#fff" stroke-width="0"/></g><rect width="265.036645" height="142.469909" rx="0" ry="0" transform="translate(517.588323 571.285327)" fill="#f40202" stroke-width="0"/><rect width="215.907412" height="106.377738" rx="0" ry="0" transform="translate(531.25831 855.59222)" fill="#f40202" stroke-width="0"/></svg>
